<svg xmlns="http://www.w3.org/2000/svg" xmlns:xlink="http://www.w3.org/1999/xlink" version="1.1" x="0px" y="0px" viewBox="0 0 100 125" enable-background="new 0 0 100 100" xml:space="preserve"><path fill="#000" d="M31.267,68.956c0.39,0.39,0.902,0.585,1.414,0.585s1.024-0.195,1.414-0.585L50.5,52.551l16.405,16.405  c0.39,0.39,0.902,0.585,1.414,0.585s1.024-0.195,1.414-0.585c0.781-0.781,0.781-2.047,0-2.829L53.328,49.723l15.556-15.557  c0.781-0.781,0.781-2.047,0-2.829c-0.78-0.781-2.048-0.781-2.828,0L50.5,46.894L34.943,31.337c-0.78-0.781-2.048-0.781-2.828,0  c-0.781,0.781-0.781,2.047,0,2.829l15.556,15.557L31.267,66.127C30.486,66.908,30.486,68.174,31.267,68.956z"/></svg>
